<svg width="500" height="500" viewBox="0 0 500 500" fill="none" xmlns="http://www.w3.org/2000/svg">
<g clip-path="url(#clip0_3_28)">
<path d="M1 107C1 71.7397 1 36.4794 1 1C36.0206 1 71.0416 1 106.507 1.34186C72.1877 36.4672 37.4256 71.252 2.64656 106.02C2.20868 106.458 1.55366 106.678 1 107Z" fill="black"/>
<path d="M501 395C501 430.26 501 465.521 501 501C465.979 501 430.958 501 395.493 500.658C429.812 465.533 464.574 430.748 499.353 395.98C499.791 395.543 500.446 395.322 501 395Z" fill="black"/>
<path d="M107 501C71.7397 501 36.4794 501 1 501C1 465.979 1 430.958 1.33618 395.519C36.2482 429.605 70.8263 464.108 105.384 498.631C106.048 499.295 106.467 500.205 107 501Z" fill="black"/>
<path d="M395 1C430.26 1 465.521 1 501 1C501 36.0206 501 71.0416 500.664 106.481C465.752 72.3948 431.174 37.8922 396.617 3.36871C395.952 2.70487 395.533 1.79506 395 1Z" fill="black"/>
<path d="M483.182 165.788C482.296 164.607 481.54 163.297 480.507 162.264C433.529 115.24 386.528 68.2393 339.516 21.2494C338.706 20.44 337.731 19.7959 336.423 18.6221C330.675 12.4463 325.338 6.72315 320 1C328.021 0.999998 336.042 0.999998 344.683 1.29511C345.748 2.08405 346.171 2.59941 346.64 3.06862C397.085 53.5251 447.531 103.979 497.99 154.422C498.921 155.353 499.993 156.144 501 157C501 165.021 501 173.042 500.691 181.406C494.648 176.428 488.915 171.108 483.182 165.788Z" fill="#DA1C5C"/>
<path d="M336.218 483.187C337.398 482.301 338.707 481.543 339.74 480.51C386.764 433.532 433.764 386.532 480.754 339.52C481.563 338.711 482.207 337.736 483.381 336.427C489.556 330.677 495.278 325.339 501 320C501 328.021 501 336.042 500.702 344.679C499.911 345.739 499.395 346.162 498.926 346.631C448.356 397.197 397.789 447.766 347.233 498.346C346.419 499.161 345.741 500.112 345 501C336.979 501 328.958 501 320.595 500.691C325.574 494.65 330.896 488.918 336.218 483.187Z" fill="#DA1C5C"/>
<path d="M18.8185 336.212C19.7037 337.393 20.4601 338.703 21.4926 339.736C68.4709 386.76 115.472 433.761 162.484 480.751C163.294 481.56 164.269 482.204 165.577 483.378C171.325 489.554 176.662 495.277 182 501C173.979 501 165.958 501 157.317 500.705C156.252 499.916 155.829 499.401 155.36 498.931C104.915 448.475 54.4685 398.021 4.01017 347.578C3.07867 346.647 2.00652 345.856 1 345C1 336.979 1.00001 328.958 1.30916 320.594C7.3517 325.572 13.0851 330.892 18.8185 336.212Z" fill="#DA1C5C"/>
<path d="M165.782 18.8135C164.602 19.6995 163.293 20.4572 162.26 21.4899C115.236 68.4678 68.236 115.468 21.2464 162.48C20.4372 163.289 19.7931 164.264 18.6187 165.573C12.4436 171.323 6.72183 176.661 1 182C0.999997 173.979 0.999997 165.958 1.2976 157.321C2.08922 156.261 2.60503 155.838 3.07417 155.369C53.6437 104.803 104.211 54.2336 154.767 3.65373C155.581 2.83902 156.259 1.88762 157 1C165.021 0.999999 173.042 0.999999 181.405 1.30899C176.426 7.34981 171.104 13.0816 165.782 18.8135Z" fill="#DA1C5C"/>
<path d="M501 156.531C499.993 156.144 498.921 155.353 497.99 154.422C447.531 103.979 397.085 53.5251 346.64 3.06863C346.171 2.59942 345.748 2.08405 345.152 1.29512C352.688 1 360.375 1 368.67 1.30259C369.717 2.10288 370.131 2.62593 370.6 3.0947C413.169 45.6698 455.741 88.2422 498.326 130.802C499.138 131.614 500.105 132.271 501 133C501 140.688 501 148.375 501 156.531Z" fill="#F15B2C"/>
<path d="M1 345.469C2.00652 345.856 3.07867 346.647 4.01017 347.578C54.4685 398.021 104.915 448.475 155.36 498.931C155.829 499.401 156.252 499.916 156.848 500.705C149.312 501 141.625 501 133.33 500.697C132.283 499.897 131.869 499.374 131.4 498.905C88.831 456.33 46.2591 413.758 3.67439 371.198C2.86202 370.386 1.89491 369.729 1 369C1 361.312 1 353.625 1 345.469Z" fill="#F15B2C"/>
<path d="M345.469 501C345.741 500.112 346.419 499.161 347.233 498.346C397.789 447.766 448.356 397.197 498.926 346.631C499.395 346.162 499.911 345.739 500.702 345.148C501 352.688 501 360.375 500.698 368.672C499.781 369.838 499.141 370.37 498.554 370.957C456.212 413.288 413.873 455.623 371.547 497.971C370.618 498.9 369.845 499.987 369 501C361.312 501 353.625 501 345.469 501Z" fill="#F15B2C"/>
<path d="M156.531 1C156.259 1.88762 155.581 2.83902 154.767 3.65373C104.211 54.2336 53.6437 104.803 3.07418 155.369C2.60503 155.838 2.08922 156.261 1.2976 156.852C0.999999 149.312 0.999999 141.625 1.30167 133.328C2.21862 132.162 2.85909 131.63 3.44559 131.043C45.7878 88.7116 88.1273 46.3772 130.453 4.02944C131.383 3.09986 132.155 2.01332 133 1C140.688 1 148.375 1 156.531 1Z" fill="#F15B2C"/>
<path d="M501 132.531C500.105 132.271 499.138 131.614 498.326 130.802C455.741 88.2422 413.169 45.6698 370.6 3.09469C370.131 2.62593 369.717 2.10287 369.139 1.30258C377.354 0.999999 385.708 0.999999 394.531 1C395.533 1.79506 395.952 2.70487 396.617 3.36871C431.174 37.8922 465.752 72.3948 500.664 106.95C501 115.354 501 123.708 501 132.531Z" fill="#F79522"/>
<path d="M1 369.469C1.8949 369.729 2.86201 370.386 3.67438 371.198C46.2591 413.758 88.831 456.33 131.4 498.905C131.869 499.374 132.283 499.897 132.861 500.697C124.646 501 116.292 501 107.469 501C106.467 500.205 106.048 499.295 105.384 498.631C70.8263 464.108 36.2482 429.605 1.33618 395.05C1 386.646 1 378.292 1 369.469Z" fill="#F79522"/>
<path d="M369.469 501C369.845 499.987 370.618 498.9 371.547 497.971C413.873 455.623 456.212 413.288 498.554 370.957C499.141 370.37 499.781 369.838 500.698 369.14C501 377.354 501 385.708 501 394.531C500.446 395.322 499.791 395.543 499.353 395.98C464.574 430.748 429.812 465.533 395.025 500.658C386.646 501 378.292 501 369.469 501Z" fill="#F79522"/>
<path d="M132.531 1C132.155 2.01332 131.383 3.09986 130.453 4.02944C88.1273 46.3772 45.7878 88.7116 3.44559 131.043C2.8591 131.63 2.21863 132.162 1.30168 132.86C1 124.646 1 116.292 1 107.469C1.55366 106.678 2.20868 106.458 2.64656 106.02C37.4256 71.252 72.1877 36.4672 106.976 1.34186C115.354 1 123.708 1 132.531 1Z" fill="#F79522"/>
<path d="M166.255 18.9557C171.104 13.0816 176.426 7.34981 181.874 1.30899C182 1.00001 182.5 1 182.75 1C188.95 6.41889 194.899 11.8378 200.849 17.2567C200.442 17.8704 200.035 18.4842 199.628 19.0979C188.661 19.0979 177.694 19.0979 166.255 18.9557Z" fill="#F15B2C"/>
<path d="M1 182.25C6.72183 176.661 12.4436 171.323 18.4895 165.883C18.8134 177.022 18.8134 188.263 18.8134 201.282C12.4834 194.669 7.03969 188.982 1.298 183.147C0.999997 183 0.999997 182.5 1 182.25Z" fill="#F15B2C"/>
<path d="M483.041 166.26C488.915 171.108 494.648 176.428 500.691 181.874C501 182 501 182.5 501 182.75C495.578 188.947 490.157 194.894 484.735 200.841C484.124 200.438 483.512 200.034 482.901 199.631C482.901 188.665 482.901 177.699 483.041 166.26Z" fill="#F15B2C"/>
<path d="M18.9587 335.74C13.0851 330.892 7.35169 325.572 1.30915 320.126C0.999995 320 0.999995 319.5 1 319.25C6.4217 313.053 11.8434 307.106 17.2651 301.159C17.8764 301.562 18.4877 301.966 19.0989 302.369C19.0989 313.335 19.0989 324.301 18.9587 335.74Z" fill="#F15B2C"/>
<path d="M501 319.75C495.278 325.339 489.556 330.677 483.511 336.117C483.187 324.978 483.187 313.738 483.187 300.716C489.517 307.33 494.96 313.018 500.702 318.853C501 319 501 319.5 501 319.75Z" fill="#F15B2C"/>
<path d="M319.75 1C325.338 6.72315 330.675 12.4463 336.113 18.494C324.974 18.8185 313.736 18.8185 302.498 18.8185C302.196 18.5027 301.894 18.1869 301.592 17.8711C307.297 12.4466 313.003 7.02203 318.854 1.29874C319 0.999998 319.5 0.999998 319.75 1Z" fill="#F15B2C"/>
<path d="M182.25 501C176.662 495.277 171.325 489.554 165.887 483.506C177.026 483.182 188.264 483.182 199.502 483.182C199.804 483.497 200.106 483.813 200.408 484.129C194.703 489.553 188.997 494.978 183.146 500.701C183 501 182.5 501 182.25 501Z" fill="#F15B2C"/>
<path d="M335.746 483.044C330.896 488.918 325.574 494.65 320.126 500.691C320 501 319.5 501 319.25 501C313.05 495.581 307.101 490.162 301.151 484.743C301.558 484.13 301.965 483.516 302.372 482.902C313.339 482.902 324.306 482.902 335.746 483.044Z" fill="#F15B2C"/>
</g>
<defs>
<clipPath id="clip0_3_28">
<rect width="500" height="500" fill="white"/>
</clipPath>
</defs>
</svg>
